<svg id="Layer_1" data-name="Layer 1" xmlns="http://www.w3.org/2000/svg" viewBox="0 0 259.56 227.51"><defs><style>.cls-1{fill:none;}.cls-2{fill:#898a8d;}.cls-3{fill:#d7282f;}</style></defs><title>VRC Tower-Takeover</title><rect class="cls-1" width="259.56" height="227.51"/><path class="cls-2" d="M240.91,168.36H18.83a6.92,6.92,0,0,0-6.92,6.92v16.29a6.35,6.35,0,0,0,6.35,6.35h222.8a6.32,6.32,0,0,0,6.32-6.32V174.83A6.47,6.47,0,0,0,240.91,168.36ZM234.34,196H25.52a5.79,5.79,0,0,1-5.79-5.79V175.62a5.35,5.35,0,0,1,5.34-5.34H234.72a4.84,4.84,0,0,1,4.83,4.84v15.66A5.22,5.22,0,0,1,234.34,196Z"/><path class="cls-2" d="M12.14,116.13H25c4.62,0,5.35,1.53,5.35,4.54V122c0,2.26-1.28,2.88-2.94,3v0c2.21.4,2.74,1.55,2.74,3v4.09h-2v-3.52c0-2.5-1.22-2.81-3.19-2.81H14.31v6.33H12.14Zm12.57,7.92c2.41,0,3.42-.64,3.42-2.32v-1.46c0-1.79-.77-2.37-4-2.37H14.31v6.15Z"/><path class="cls-2" d="M44.78,122c0-4,1.38-6,5.71-6h9.22c4.34,0,5.71,1.94,5.71,6v4.38c0,4-1.37,6-5.71,6H50.49c-4.33,0-5.71-1.94-5.71-6Zm18.47-.82c0-2.78-1.68-3.4-3.76-3.4H50.71c-2.08,0-3.76.62-3.76,3.4v6c0,2.78,1.68,3.4,3.76,3.4h8.78c2.08,0,3.76-.62,3.76-3.4Z"/><path class="cls-2" d="M80.34,116.13H94c3.32,0,4.25,1.73,4.25,3.56v1.38c0,1.15-.64,2.32-2.59,2.52v.09c1.7.08,3.21.73,3.21,3.16v1.9c0,2.23-2,3.41-4.65,3.41H80.34Zm15.75,3.45c0-1.45-1.61-1.68-2.28-1.68H82.51V123H93.7c1.18,0,2.39-.37,2.39-2Zm.62,7.5c0-2-1.1-2.3-3.07-2.3H82.51v5.6H94c2,0,2.74-.73,2.74-2.15Z"/><path class="cls-2" d="M113.41,122c0-4,1.37-6,5.7-6h9.22c4.34,0,5.71,1.94,5.71,6v4.38c0,4-1.37,6-5.71,6h-9.22c-4.33,0-5.7-1.94-5.7-6Zm18.46-.82c0-2.78-1.68-3.4-3.76-3.4h-8.78c-2.08,0-3.76.62-3.76,3.4v6c0,2.78,1.68,3.4,3.76,3.4h8.78c2.08,0,3.76-.62,3.76-3.4Z"/><path class="cls-2" d="M155.31,117.9h-8.09v-1.77h18.35v1.77h-8.09v14.25h-2.17Z"/><path class="cls-2" d="M179.24,116.13h2.17v16h-2.17Z"/><path class="cls-2" d="M196.4,122c0-4,1.37-6,5.71-6h8.29c3.94,0,5,1.83,5,4v1.37h-1.9v-.73c0-2.72-1.68-2.85-3.67-2.85h-7.52c-2.08,0-3.76.62-3.76,3.4v6c0,2.78,1.68,3.4,3.76,3.4h7.58c2.92,0,3.76-.62,3.76-2.78v-1h2v1.09c0,2.89-.93,4.46-5.42,4.46h-8.18c-4.34,0-5.71-1.94-5.71-6Z"/><path class="cls-2" d="M229.91,127.1h2v1.13c0,1.57.84,2.32,3.54,2.32h6.72c3.14,0,4.07-.66,4.07-3,0-2-.79-2.52-3.49-2.52h-4.12c-6.61,0-8.78-.4-8.78-4.64,0-3.65,2.17-4.47,6.64-4.47h4.66c5.38,0,6.73,1.37,6.73,4.22v.55h-2c0-2.54-.31-3-6-3h-2.3c-4.18,0-5.66.22-5.66,2.85,0,1.9.59,2.54,4,2.54h6.41c4.23,0,6,1.22,6,3.94v1c0,3.94-3.23,4.22-6.44,4.22h-6c-3.16,0-5.94-.55-5.94-4Z"/><path class="cls-3" d="M11.42,150.35c0-4.91,2.76-6.07,7.4-6.07h6.05c7.32,0,8.27,1.58,8.23,6.33H28v-.46c0-1.21-.88-1.56-2.41-1.56H19.93c-2.71,0-3.22,1.28-3.22,3.36v1.81c0,2.44.51,3.36,2.94,3.36h5.49c2.32,0,3-.23,3-2.31H33.3v1.57c0,2.83-1,5.06-6.19,5.06H18.82c-4.64,0-7.4-1.16-7.4-6.08Z"/><path class="cls-3" d="M36.23,150.35c0-4.91,2.76-6.07,7.4-6.07h8.25c4.64,0,7.4,1.16,7.4,6.07v5c0,4.92-2.76,6.08-7.4,6.08H43.63c-4.64,0-7.4-1.16-7.4-6.08Zm5.29,3.41c0,2.44.51,3.36,2.94,3.36h6.59c2.43,0,2.94-.92,2.94-3.36V152c0-2.08-.51-3.36-3.22-3.36h-6c-2.71,0-3.22,1.28-3.22,3.36Z"/><path class="cls-3" d="M62.58,144.47h7.9l5.82,10.8,5.82-10.8H90v16.78H85V149.2h0l-6.74,12.05H74.38L67.63,149.2h0v12.05h-5Z"/><path class="cls-3" d="M93.7,144.47h14c4.89,0,6.07,2.45,6.07,5.75v1.43c0,2.51-1.09,5.38-4.73,5.38H98.85v4.22H93.7Zm5.15,8.39h8a1.57,1.57,0,0,0,1.67-1.79v-.65c0-1.13-.56-1.78-2.11-1.78H98.85Z"/><path class="cls-3" d="M116.78,144.47h18.36v3.89H121.92v2.69h12.52v3.48H121.92v2.69h13.52v4H116.78Z"/><path class="cls-3" d="M137.51,144.47h19.61v4.17h-7.23v12.61h-5.15V148.64h-7.23Z"/><path class="cls-3" d="M159.84,144.47H165v16.78h-5.15Z"/><path class="cls-3" d="M167.7,144.47h19.62v4.17h-7.24v12.61h-5.14V148.64H167.7Z"/><path class="cls-3" d="M190,144.47h5.14v16.78H190Z"/><path class="cls-3" d="M198.76,150.35c0-4.91,2.76-6.07,7.39-6.07h8.26c4.63,0,7.39,1.16,7.39,6.07v5c0,4.92-2.76,6.08-7.39,6.08h-8.26c-4.63,0-7.39-1.16-7.39-6.08Zm5.28,3.41c0,2.44.51,3.36,3,3.36h6.58c2.44,0,2.94-.92,2.94-3.36V152c0-2.08-.5-3.36-3.22-3.36h-6c-2.72,0-3.23,1.28-3.23,3.36Z"/><path class="cls-3" d="M225.1,144.47h8l9.66,12.19h0V144.47h5.15v16.78h-8l-9.67-12.19h0v12.19H225.1Z"/><path class="cls-2" d="M226.28,59.59a.86.86,0,0,0-.49.15L205.22,74.05,184.55,59.74a.89.89,0,0,0-.5-.15H165.89a.87.87,0,0,0-.83.61.78.78,0,0,0,0,.26.89.89,0,0,0,.38.72L194.83,81.1,162.9,102.49a.86.86,0,0,0-.39.72,1,1,0,0,0,0,.25.87.87,0,0,0,.83.62h18.56a.89.89,0,0,0,.5-.15l22.78-15.77,22.57,15.76a.83.83,0,0,0,.5.16h18.26a.87.87,0,0,0,.83-.61.78.78,0,0,0,0-.26.89.89,0,0,0-.38-.72L215.3,81.1l29.53-19.92a.86.86,0,0,0,.38-.72,1.15,1.15,0,0,0,0-.26.88.88,0,0,0-.83-.61Z"/><path class="cls-2" d="M83.51,59.59a.87.87,0,0,0-.68.32S56.92,91.6,55.63,93.19L28.91,59.91a.88.88,0,0,0-.68-.32H13A.87.87,0,0,0,12.31,61l35.21,42.75a.9.9,0,0,0,.68.32H63a.87.87,0,0,0,.67-.31L99.43,61a.9.9,0,0,0,.12-.93.87.87,0,0,0-.79-.5Z"/><path class="cls-3" d="M107.61,59.58a25.62,25.62,0,0,1-2.81-12.07c0-9.74,4.88-17.92,10.82-17.92H153.2c2,0,3.65,2.73,3.65,6s-1.65,6-3.65,6H115.62c-2,0-3.53,2.73-3.53,5.85s1.42,6.13,3.53,6.13H153.2c2,0,3.65,2.68,3.65,5.94h0c0,3.26-1.65,5.94-3.65,5.94H115.62c-2.11,0-3.53,3-3.53,6.14s1.53,5.84,3.53,5.84H153.2c2,0,3.65,2.73,3.65,6s-1.65,6-3.65,6H115.62c-5.94,0-10.82-8.18-10.82-17.91a25.63,25.63,0,0,1,2.81-12.08Z"/><path class="cls-2" d="M244.49,91.81a2.9,2.9,0,0,1,1.44.38,2.66,2.66,0,0,1,1.1,1.08,3,3,0,0,1,.39,1.47,2.92,2.92,0,0,1-.39,1.45A2.64,2.64,0,0,1,246,97.28a2.93,2.93,0,0,1-1.46.39,3,3,0,0,1-1.46-.39A2.76,2.76,0,0,1,242,96.19a2.9,2.9,0,0,1,0-2.92,2.64,2.64,0,0,1,1.09-1.08A2.93,2.93,0,0,1,244.49,91.81Zm0,.48a2.51,2.51,0,0,0-1.2.32,2.25,2.25,0,0,0-.91.9,2.52,2.52,0,0,0-.33,1.23,2.41,2.41,0,0,0,.32,1.21,2.34,2.34,0,0,0,.91.91,2.47,2.47,0,0,0,2.43,0,2.25,2.25,0,0,0,.9-.91,2.42,2.42,0,0,0,.33-1.21,2.64,2.64,0,0,0-.33-1.23,2.28,2.28,0,0,0-.92-.9A2.51,2.51,0,0,0,244.49,92.29Zm-1.28,4.07V93.21h1.08a2.71,2.71,0,0,1,.81.08.85.85,0,0,1,.54.77.82.82,0,0,1-.25.6,1,1,0,0,1-.65.29.89.89,0,0,1,.27.17,3.65,3.65,0,0,1,.46.62l.39.62h-.63l-.27-.5a2.43,2.43,0,0,0-.54-.73A.64.64,0,0,0,244,95h-.3v1.34Zm.51-1.78h.61a1,1,0,0,0,.61-.13.41.41,0,0,0,.16-.35.46.46,0,0,0-.08-.25.42.42,0,0,0-.21-.16,1.52,1.52,0,0,0-.51-.06h-.58Z"/><rect class="cls-1" x="12.2" y="29.59" width="235.8" height="74.49"/><path class="cls-2" d="M28.65,180.61h-5v-2.8H37.15v2.8h-5v8.53H28.65Z"/><path class="cls-2" d="M50.84,177.86a3.11,3.11,0,0,1,2.84,3,25.49,25.49,0,0,1,.1,2.75c0,2.74-.29,3.84-1.26,4.64a5.13,5.13,0,0,1-3.28.92c-.61,0-2.12,0-3.23,0a33,33,0,0,1-4.76-.18,3,3,0,0,1-2.41-1.53c-.44-.84-.55-1.67-.55-4.15a10.87,10.87,0,0,1,.24-3.15A2.89,2.89,0,0,1,40.79,178c1-.28,2-.34,5-.34A33.46,33.46,0,0,1,50.84,177.86Zm-8.47,3c-.46.36-.59.92-.59,2.55s.13,2.28.56,2.64,1,.44,3.62.44c3,0,3.59-.1,4-.64s.41-1,.41-2.5c0-2.86-.06-2.89-4.31-2.89C43.51,180.46,42.82,180.54,42.37,180.86Z"/><path class="cls-2" d="M58,177.81l3.29,8.63,2.93-8.63h4.16l2.84,8.63,3.4-8.63h3.5l-4.69,11.33H68.79L66.27,181l-2.63,8.16H59.05l-4.57-11.33Z"/><path class="cls-2" d="M92,177.81v2.56H82.87v2H91.5v2.24H82.87v2h9.28v2.56H79.46V177.81Z"/><path class="cls-2" d="M93.86,177.81h9.78c2,0,2.89.17,3.53.71s1,1.5,1,3c0,2.11-.51,3-2,3.27,1.41.24,1.83.83,1.8,2.55v1.78h-3.5v-1.41c0-1.22-.36-1.48-1.91-1.44H97.3v2.85H93.86Zm8.83,5.71c1.66,0,2-.21,2-1.33,0-.73-.06-1-.28-1.27s-.55-.33-1.59-.33H97.3v2.93Z"/><path class="cls-2" d="M117.56,180.61h-5v-2.8h13.55v2.8h-5v8.53h-3.45Z"/><path class="cls-2" d="M130.71,177.81h4.63l6.2,11.33h-3.77l-1.12-2h-7.31l-1.09,2h-3.91Zm4.73,6.95L133,180.24l-2.41,4.52Z"/><path class="cls-2" d="M142.7,177.81h3.45V182H148l4.7-4.23h4.74l-6.51,5.6,7.14,5.73h-5l-5.11-4.35h-1.74v4.35H142.7Z"/><path class="cls-2" d="M171.79,177.81v2.56h-9.16v2h8.63v2.24h-8.63v2h9.28v2.56H159.23V177.81Z"/><path class="cls-2" d="M185.89,177.86a3.11,3.11,0,0,1,2.84,3,25.49,25.49,0,0,1,.1,2.75c0,2.74-.29,3.84-1.26,4.64a5.13,5.13,0,0,1-3.28.92c-.61,0-2.13,0-3.23,0a33,33,0,0,1-4.76-.18,3,3,0,0,1-2.41-1.53c-.44-.84-.55-1.67-.55-4.15a10.87,10.87,0,0,1,.24-3.15,2.89,2.89,0,0,1,2.26-2.22c.95-.28,2-.34,5-.34A33.46,33.46,0,0,1,185.89,177.86Zm-8.47,3c-.46.36-.59.92-.59,2.55s.13,2.28.56,2.64,1,.44,3.62.44c3,0,3.59-.1,4-.64s.41-1,.41-2.5c0-2.86-.06-2.89-4.31-2.89C178.56,180.46,177.87,180.54,177.42,180.86Z"/><path class="cls-2" d="M189.31,177.81h3.81l4.47,8.56,4.57-8.56H206l-6.27,11.33h-4.37Z"/><path class="cls-2" d="M219.79,177.81v2.56h-9.16v2h8.63v2.24h-8.63v2h9.28v2.56H207.23V177.81Z"/><path class="cls-2" d="M221.63,177.81h9.77c2,0,2.89.17,3.54.71s1,1.5,1,3c0,2.11-.51,3-2,3.27,1.41.24,1.84.83,1.8,2.55v1.78h-3.5v-1.41c0-1.22-.35-1.48-1.9-1.44h-5.29v2.85h-3.43Zm8.82,5.71c1.67,0,2-.21,2-1.33,0-.73-.07-1-.29-1.27s-.54-.33-1.58-.33h-5.51v2.93Z"/></svg>